<svg xmlns="http://www.w3.org/2000/svg" version="1.1" xmlns:xlink="http://www.w3.org/1999/xlink" xmlns:svgjs="http://svgjs.dev/svgjs" viewBox="0 0 1920 1080" class="overflow-hidden rounded-md drop-shadow-lg transition duration-300" style="overflow: hidden; height: 85vh;"><rect width="1920" height="1080" fill="#2b6c82"/><g clip-path="url(&quot;#SvgjsClipPath4505&quot;)"><g transform="matrix(0.8272407703894488,0.7988571260278468,-0.7988571260278468,0.8272407703894488,589.0288347516034,-635.681892917489)"><path d="M0,-1080C15.954858195132525,-1007.5869757663797,82.27558870472286,-772.500141383375,95.72914917079515,-645.5218545982782C109.18270963686744,-518.5435678131814,93.21308599488522,-436.8484596770584,80.72136279643377,-318.1302792894197C68.22963959798231,-199.41209890178106,37.51746178137161,-72.95068337165222,20.778809980086464,66.78722772755367C4.040158178801317,206.52513882675956,-17.975107413916515,365.53520686208594,-19.710548011277126,520.2971873058157C-21.445988608637737,675.0591677495454,11.211235725355587,852.6847986846391,10.36616639592279,995.3591103899323C9.521097066489991,1138.0334220952257,-7.261892127333681,1235.471220672354,-24.780963987873918,1376.3430575375753C-42.300035848414154,1517.2148944027965,-98.87842543196429,1709.9806411708557,-94.74826476731863,1840.5901315812598C-90.61810410267297,1971.199621991664,-15.791377461219772,2106.76502193021,0,2160L 1920 2160 L 1920 -1080 Z" fill="url(&quot;#SvgjsLinearGradient4493&quot;)"/><path d="M160,-1080C140.66196355448153,-983.6905154225101,48.296362310555885,-695.0935170154348,43.97178132688913,-502.14309253506036C39.64720034322237,-309.1926680546859,132.4845188227172,-77.55419569252544,134.05251409799945,77.7025468822469C135.6205093732817,232.95928945701925,62.20739262013387,269.25897887760175,53.379752978582644,429.39736291357366C44.55211333703142,589.5357469495456,74.20629191593501,821.401667188913,81.08667624869213,1038.5328510980783C87.96706058144925,1255.6640350072435,81.5098383499074,1545.2732748849116,94.66205897512538,1732.1844663685652C107.81427960034335,1919.0956578522187,149.1103431625209,2088.6974110614274,160,2160L 1920 2160 L 1920 -1080 Z" fill="url(&quot;#SvgjsLinearGradient4494&quot;)"/><path d="M320,-1080C326.1750772160591,-994.85664526015,357.7303927335082,-723.3088698721101,357.0504632963545,-569.1398715609001C356.3705338592008,-414.97087324969016,302.5396333592933,-288.580022626511,315.9204233770778,-154.98601013274015C329.30121339486226,-21.391997638969315,421.7505186937547,95.97905872529506,437.3352034030615,232.42420340172492C452.91988811236826,368.86934807815476,412.02823147550174,494.07907137747895,409.4285316329185,663.684857925839C406.8288317903353,833.290644474199,427.69245504311823,1081.1633078788811,421.7370043475621,1250.058922691885C415.781553652006,1418.954537504889,390.6519948508422,1525.4017005858434,373.69582745958184,1677.0585468038626C356.7396600683215,1828.7153930218817,328.949304576597,2079.509757800644,320,2160L 1920 2160 L 1920 -1080 Z" fill="url(&quot;#SvgjsLinearGradient4495&quot;)"/><path d="M480,-1080C471.92208577037997,-990.7548366194242,444.0732329354638,-775.9748352615276,431.5325146222798,-544.529019716545C418.9917963090958,-313.08320417156244,393.1577589537995,59.358535141730215,404.7556901208961,308.67489326989534C416.35362128799267,557.9912513980605,504.586868429099,733.5935945638627,501.1201016248594,951.3691290524456C497.65333482061976,1169.1446635410284,387.4751062329349,1413.8896217101337,383.9550892954583,1615.3281002013928C380.43507235798177,1816.7665786926518,463.9925148825764,2069.2213500335656,480,2160L 1920 2160 L 1920 -1080 Z" fill="url(&quot;#SvgjsLinearGradient4496&quot;)"/><path d="M640,-1080C646.6908937641886,-969.9948469218282,699.3006392571505,-609.9492161565444,680.1453625851316,-419.96908153096877C660.9900859131127,-229.98894690539314,518.9314674322711,-89.42871245224032,525.0683399678867,59.88080775345378C531.2052125035023,209.19032795914788,716.6485404061937,297.1469599292145,716.9665977988252,475.8880397031958C717.2846551914567,654.629119477177,538.6473398460482,930.859626583851,526.976684323676,1132.3272863973414C515.3060288013037,1333.7949462108318,628.1054453852041,1513.4152129836948,646.9426646645915,1684.693998584138C665.7798839439788,1855.972784184581,641.1571107774319,2080.7823330973565,640,2160L 1920 2160 L 1920 -1080 Z" fill="url(&quot;#SvgjsLinearGradient4497&quot;)"/><path d="M800,-1080C785.5824732423665,-944.7978889206487,724.6191600201149,-535.145390353736,713.4948394541991,-268.7873335238922C702.3705188882833,-2.4292766940482693,709.3476483998195,229.27492040191765,733.2540766045051,518.1483409790635C757.1605048091908,807.0217615562094,845.8090881163969,1190.811246768827,856.9334086823127,1464.453189938983C868.0577292482285,1738.0951331091392,809.4889014470521,2044.075531656497,800,2160L 1920 2160 L 1920 -1080 Z" fill="url(&quot;#SvgjsLinearGradient4498&quot;)"/><path d="M960,-1080C970.2069872118544,-956.1906011875577,1006.1232723317439,-557.9871719811126,1021.2419232711263,-337.14360712534636C1036.3605742105087,-116.30004226958005,1051.0260859031723,28.510025579482857,1050.7119056362944,245.06138913459802C1050.3977253694165,461.61275268971315,1051.6693338748262,750.8974595471717,1019.3568416698586,962.1645742053447C987.0443494648908,1173.4316888635176,866.7297593514646,1313.0248394511932,856.8369524064882,1512.6640770836357C846.9441454615118,1712.3033147160781,942.8061587344147,2052.1106795139394,960,2160L 1920 2160 L 1920 -1080 Z" fill="url(&quot;#SvgjsLinearGradient4499&quot;)"/><path d="M1120,-1080C1119.3659724397821,-1011.2683710296039,1126.9492690549737,-789.6398564056225,1116.195834638693,-667.6102261776238C1105.4424002224123,-545.580595949625,1072.2058746521277,-485.5135973574258,1055.4793935023154,-347.82221863200783C1038.752912352503,-210.13083990658987,990.1892702220891,27.026109794114376,1015.8369477398192,158.53804617488407C1041.4846252575492,290.04998255565374,1179.1265470068595,317.59216386013213,1209.3654586086957,441.2493996526103C1239.604370210532,564.9066354450885,1203.068880225172,732.4614734500601,1197.270417350836,900.4814609297532C1191.4719544764998,1068.5014484094463,1189.254348044056,1311.9349605006216,1174.5746813626797,1449.3693245307686C1159.8950146813033,1586.8036885609156,1118.2881974896914,1606.6491991990965,1109.1924172625781,1725.087645110635C1100.096637035465,1843.5260910221737,1118.1987362104296,2087.5146075184393,1120,2160L 1920 2160 L 1920 -1080 Z" fill="url(&quot;#SvgjsLinearGradient4500&quot;)"/><path d="M1280,-1080C1299.7450817782328,-989.8124698998681,1391.8450033299475,-722.0286112251646,1398.470490669397,-538.8748193992087C1405.0959780088463,-355.72102757325285,1352.3524012054772,-148.3664522498997,1319.7529240366964,18.922750955735296C1287.1534468679156,186.2119541613703,1213.1811959023785,295.77896192269964,1202.8736276567115,464.8603998346013C1192.5660594110445,633.941837746503,1232.6800420431255,832.3076564260332,1257.907514562694,1033.4113784271456C1283.1349870822623,1234.515100428258,1350.5563818679045,1483.7179615791333,1354.2384627741221,1671.4827318412758C1357.9205436803397,1859.2475021034184,1292.3730771290204,2078.5804553068792,1280,2160L 1920 2160 L 1920 -1080 Z" fill="url(&quot;#SvgjsLinearGradient4501&quot;)"/><path d="M1440,-1080C1429.9330680584433,-978.7423998139473,1366.9237061807617,-690.7553891133032,1379.5984083506592,-472.45439888368367C1392.2731105205567,-254.15340865406415,1513.8352134359614,21.13282173647127,1516.0482130193857,229.80594137771715C1518.26121260281,438.479061018963,1386.604928097763,566.3183197841174,1392.8764058512052,779.5843189637915C1399.1478836046474,992.8503181434655,1545.8231471819072,1279.3326562830603,1553.6770795400396,1509.4019364557616C1561.531011898172,1739.471216628463,1458.94617992334,2051.5669894092935,1440,2160L 1920 2160 L 1920 -1080 Z" fill="url(&quot;#SvgjsLinearGradient4502&quot;)"/><path d="M1600,-1080C1605.5421644712778,-929.5256881926848,1621.8950526360188,-451.90407583995943,1633.2529868276667,-177.15412915610904C1644.6109210193147,97.59581752774136,1658.080747997432,309.0718268811399,1668.147605149888,568.4996801031025C1678.2144623023441,827.927533325065,1705.0120639340516,1114.162936859517,1693.6541297424037,1379.4129901756667C1682.2961955507558,1644.6630434918163,1615.609021623734,2029.9021650292777,1600,2160L 1920 2160 L 1920 -1080 Z" fill="url(&quot;#SvgjsLinearGradient4503&quot;)"/><path d="M1760,-1080C1760.2451471703325,-1026.9516788877602,1763.196505246959,-915.2544036785039,1761.4708830219952,-761.7100733265615C1759.7452607970313,-608.1657429746192,1742.7391250650887,-310.44134650460853,1749.646266650217,-158.73401788834587C1756.5534082353454,-7.026689272083246,1803.1922335863067,24.46623263124873,1802.9137325327647,148.53389837101423C1802.6352314792227,272.60156411077975,1737.2012784831627,444.93122270686297,1747.9752603289649,585.6719765502471C1758.749242174767,726.4127303936313,1862.3304329037082,852.1767012695364,1867.5576236075783,992.9784214313189C1872.7848143114484,1133.7801415931015,1802.4221274106244,1322.2038790260813,1779.3384045521852,1430.4822975209422C1756.254681693746,1538.7607160158032,1732.2783538823078,1521.062648653975,1729.0552864569436,1642.6489324004847C1725.8322190315794,1764.2352161469944,1754.8425477428239,2073.774822066747,1760,2160L 1920 2160 L 1920 -1080 Z" fill="url(&quot;#SvgjsLinearGradient4504&quot;)"/></g></g><defs><linearGradient x1="0.1" y1="0" x2="0" y2="1" id="SvgjsLinearGradient4493"><stop stop-color="#2b6c82" offset="0"/><stop stop-color="#2b7a82" offset="0"/></linearGradient><linearGradient x1="0.1" y1="0" x2="0" y2="1" id="SvgjsLinearGradient4494"><stop stop-color="#276377" offset="0"/><stop stop-color="#277077" offset="0.08333333333333333"/></linearGradient><linearGradient x1="0.1" y1="0" x2="0" y2="1" id="SvgjsLinearGradient4495"><stop stop-color="#23596b" offset="0"/><stop stop-color="#23656b" offset="0.16666666666666666"/></linearGradient><linearGradient x1="0.1" y1="0" x2="0" y2="1" id="SvgjsLinearGradient4496"><stop stop-color="#205060" offset="0"/><stop stop-color="#205b60" offset="0.25"/></linearGradient><linearGradient x1="0.1" y1="0" x2="0" y2="1" id="SvgjsLinearGradient4497"><stop stop-color="#1c4654" offset="0"/><stop stop-color="#1c4f54" offset="0.3333333333333333"/></linearGradient><linearGradient x1="0.1" y1="0" x2="0" y2="1" id="SvgjsLinearGradient4498"><stop stop-color="#183d49" offset="0"/><stop stop-color="#184549" offset="0.4166666666666667"/></linearGradient><linearGradient x1="0.1" y1="0" x2="0" y2="1" id="SvgjsLinearGradient4499"><stop stop-color="#14333e" offset="0"/><stop stop-color="#143a3e" offset="0.5"/></linearGradient><linearGradient x1="0.1" y1="0" x2="0" y2="1" id="SvgjsLinearGradient4500"><stop stop-color="#112a32" offset="0"/><stop stop-color="#112f32" offset="0.5833333333333334"/></linearGradient><linearGradient x1="0.1" y1="0" x2="0" y2="1" id="SvgjsLinearGradient4501"><stop stop-color="#0d2027" offset="0"/><stop stop-color="#0d2427" offset="0.6666666666666666"/></linearGradient><linearGradient x1="0.1" y1="0" x2="0" y2="1" id="SvgjsLinearGradient4502"><stop stop-color="#09171b" offset="0"/><stop stop-color="#091a1b" offset="0.75"/></linearGradient><linearGradient x1="0.1" y1="0" x2="0" y2="1" id="SvgjsLinearGradient4503"><stop stop-color="#050d10" offset="0"/><stop stop-color="#050f10" offset="0.8333333333333334"/></linearGradient><linearGradient x1="0.1" y1="0" x2="0" y2="1" id="SvgjsLinearGradient4504"><stop stop-color="#010405" offset="0"/><stop stop-color="#010505" offset="0.9166666666666666"/></linearGradient><clipPath id="SvgjsClipPath4505"><rect width="1920" height="1080"/></clipPath></defs></svg>